<svg width="22" height="22" viewBox="0 0 22 22" fill="none" xmlns="http://www.w3.org/2000/svg">
<path d="M17.024 14.911C16.9879 14.8016 16.7565 14.6404 16.3306 14.4279C16.2152 14.3613 14.3065 13.2401 14.2185 13.1976C14.1304 13.1549 14.0435 13.1337 13.9583 13.1337C13.8369 13.1337 13.6849 13.2202 13.5024 13.3935C13.1441 13.7346 13.0803 13.8818 12.7057 14.3238L12.4778 14.5651C12.3255 14.7122 12.199 14.7856 12.0984 14.7857C12.0436 14.7856 11.3256 14.4361 11.3136 14.43C9.59311 13.477 8.54572 12.4386 7.58105 10.7005C7.57502 10.688 7.53993 10.6305 7.47599 10.5273C7.41199 10.424 7.22472 9.97069 7.22472 9.91619C7.22462 9.81695 7.29648 9.69247 7.43921 9.54261C7.63529 9.35655 7.75468 9.23365 8.05001 9.0126C8.25391 8.86048 8.4418 8.6931 8.61512 8.51103C8.78891 8.32827 8.8752 8.17621 8.8752 8.05435C8.87504 7.96953 8.85374 7.88262 8.81115 7.79465C8.76834 7.70626 7.64568 5.79853 7.5789 5.68323C7.45967 5.44535 7.35675 5.26831 7.26999 5.15186C7.16382 5.00966 7.10502 4.98123 7.00829 4.9688C6.68721 4.92578 5.93179 5.11567 5.63557 5.24607C5.53029 5.2904 5.43325 5.35932 5.34722 5.43528L5.11584 5.67961C4.97048 5.85733 4.8215 6.08378 4.66886 6.35959C4.15914 7.29958 4.09468 8.15113 4.35077 9.06007C4.40558 9.25452 4.44985 9.39904 4.48322 9.49298C4.58178 9.76937 4.79103 10.3132 4.83457 10.4462C5.04811 11.0422 5.30032 11.5741 5.5925 12.0425C6.55297 13.5977 8.39827 15.4481 9.97326 16.4194C10.7705 16.916 11.4526 17.128 12.0175 17.3399C13.063 17.7324 14.1582 18.152 15.6571 17.3388C15.9361 17.1839 16.1647 17.0328 16.3433 16.8855L16.5862 16.653C16.6696 16.5574 16.7308 16.4634 16.7693 16.3712C16.9113 16.0568 17.1297 15.155 17.024 14.911Z" fill="#231F20"/>
<path d="M13.307 10.8969C12.9696 9.79829 12.1371 8.95671 11.1344 8.70063C10.9806 8.66134 10.8878 8.50486 10.9271 8.35107C10.9664 8.19727 11.1229 8.10448 11.2767 8.14376C12.5357 8.46531 13.4769 9.49238 13.8564 10.7282C13.903 10.8799 13.8178 11.0406 13.6661 11.0872C13.5145 11.1338 13.3536 11.0487 13.307 10.8969Z" fill="#231F20"/>
<path d="M15.3055 11.414C14.5554 8.97165 12.7098 7.22705 10.6248 6.69452C10.471 6.65524 10.3782 6.49876 10.4175 6.34496C10.4568 6.19117 10.6132 6.09837 10.767 6.13766C13.2555 6.77326 15.1067 8.80899 15.8549 11.2453C15.9015 11.397 15.8163 11.5577 15.6646 11.6043C15.513 11.6508 15.3521 11.5658 15.3055 11.414Z" fill="#231F20"/>
<path d="M17.233 11.8381C16.133 8.25615 13.4131 5.57884 10.2078 4.76017C10.054 4.72088 9.96118 4.56441 10.0005 4.41061C10.0398 4.25681 10.1962 4.16402 10.35 4.2033C13.9088 5.11225 16.6625 8.02288 17.7824 11.6694C17.829 11.8211 17.7438 11.9819 17.5921 12.0285C17.4405 12.075 17.2796 11.9899 17.233 11.8381Z" fill="#231F20"/>
<path d="M20.802 15.9961C20.7087 16.1787 20.475 16.2359 20.3077 16.1173C20.1713 16.0206 20.1266 15.8384 20.2028 15.6896C20.9208 14.2861 21.3272 12.6979 21.3299 11.0169C21.339 5.31589 16.7126 0.676287 11.0115 0.66973C5.32035 0.663226 0.686236 5.28274 0.669083 10.9683C0.651825 16.682 5.28573 21.3303 10.9995 21.3303C13.8352 21.3303 16.4797 20.176 18.4043 18.1961C18.6114 17.9127 18.6074 17.6009 18.3924 17.2689C18.0139 16.6846 17.1033 16.2481 16.5539 16.3876L16.3839 15.7184C17.779 15.364 19.9995 17.0648 18.9997 18.5497C14.9352 22.8659 8.20647 23.1475 3.79163 19.3102C3.5968 19.1408 3.40655 18.9635 3.22117 18.7782C3.03652 18.5935 2.85975 18.4038 2.69089 18.2095C-1.03836 13.9175 -0.918915 7.3619 3.22117 3.22188C7.48804 -1.04492 14.2207 -0.99168 18.4419 2.89482C18.6621 3.09751 18.8755 3.31063 19.0813 3.53415C19.4539 3.93878 19.8018 4.37741 20.1208 4.84956C22.4199 8.2529 22.5637 12.5477 20.802 15.9961Z" fill="#231F20"/>
</svg>
