<svg width="29" height="25" viewBox="0 0 29 25" fill="none" xmlns="http://www.w3.org/2000/svg">
<g clip-path="url(#clip0)">
<path d="M1.18185e-05 24.7326C-0.0914708 24.9109 0.137236 25.0446 0.27446 24.9109C1.73818 23.5294 5.8549 20.6328 15.4148 19.5633C27.948 18.1373 29.4574 6.14973 28.8628 0.356503C28.817 0.0891228 28.5883 -0.0891303 28.3139 -0.044567C27.1246 0.0891228 23.694 0.534756 17.9764 1.29233C10.8864 2.27272 2.1956 4.01069 1.0978 17.0232C1.05206 17.2906 1.41799 17.4688 1.6467 17.2905C3.38487 15.5971 8.59938 10.8289 13.5394 10.1159C13.7224 10.0713 13.8596 10.3387 13.6767 10.4724C13.082 10.8289 12.03 11.4973 10.0174 12.6114C5.12304 15.3743 1.6467 20.9893 1.18185e-05 24.7326Z" fill="#1F9751"/>
</g>
<defs>
<clipPath id="clip0">
<rect width="29" height="25" fill="white"/>
</clipPath>
</defs>
</svg>
