<svg width="72" height="52" viewBox="0 0 72 52" fill="none" xmlns="http://www.w3.org/2000/svg">
<circle cx="36" cy="26" r="23.75" fill="white" stroke="#50D27F" stroke-width="4.5"/>
<path d="M35.3168 20.368V24.544C35.3168 26.128 35.0288 27.556 34.4528 28.828C33.9008 30.076 32.9408 31.372 31.5728 32.716L29.1608 30.772C29.8328 30.076 30.3608 29.44 30.7448 28.864C31.1288 28.264 31.4048 27.664 31.5728 27.064H28.5128V20.368H35.3168ZM43.4528 20.368V24.544C43.4528 26.128 43.1648 27.556 42.5888 28.828C42.0368 30.076 41.0768 31.372 39.7088 32.716L37.2968 30.772C37.9688 30.076 38.4968 29.44 38.8808 28.864C39.2648 28.264 39.5408 27.664 39.7088 27.064H36.6488V20.368H43.4528Z" fill="#636363"/>
</svg>
