<svg width="24" height="24" viewBox="0 0 24 24" fill="none" xmlns="http://www.w3.org/2000/svg">
<circle cx="12" cy="12" r="12" fill="#50D27F"/>
<path d="M9.67969 15.6758C10.0807 16.0586 10.5547 16.25 11.1016 16.25C11.4297 16.25 11.7487 16.1589 12.0586 15.9766L10.6367 19.4766C10.582 19.6224 10.4727 19.7044 10.3086 19.7227C10.1628 19.7591 10.0352 19.7227 9.92578 19.6133L8.91406 18.5742L7.49219 18.6289C7.32812 18.6289 7.20052 18.5651 7.10938 18.4375C7.01823 18.3099 7 18.1732 7.05469 18.0273L8.3125 14.9648C8.53125 15.1471 8.75911 15.2747 8.99609 15.3477C9.05078 15.3659 9.13281 15.3841 9.24219 15.4023C9.40625 15.4388 9.52474 15.5026 9.59766 15.5938L9.67969 15.6758ZM17.5 18.0273C17.5547 18.1732 17.5365 18.3099 17.4453 18.4375C17.3542 18.5651 17.2266 18.6289 17.0625 18.6289L15.6406 18.5742L14.6289 19.6133C14.5195 19.7227 14.3828 19.7591 14.2188 19.7227C14.0729 19.7044 13.9727 19.6224 13.918 19.4766L12.4961 15.9766C12.806 16.1589 13.125 16.25 13.4531 16.25C14 16.25 14.474 16.0586 14.875 15.6758C14.8932 15.6576 14.9206 15.6302 14.957 15.5938C15.0299 15.5026 15.1484 15.4388 15.3125 15.4023C15.349 15.4023 15.3763 15.4023 15.3945 15.4023C15.4128 15.3841 15.431 15.375 15.4492 15.375C15.4857 15.3568 15.5221 15.3477 15.5586 15.3477C15.7956 15.2747 16.0234 15.1471 16.2422 14.9648L17.5 18.0273ZM14.2188 15.0469C14.0365 15.2292 13.8177 15.3385 13.5625 15.375C13.3073 15.3932 13.0703 15.3385 12.8516 15.2109C12.6875 15.1016 12.4961 15.0469 12.2773 15.0469C12.0586 15.0469 11.8672 15.1016 11.7031 15.2109C11.4844 15.3385 11.2474 15.3932 10.9922 15.375C10.737 15.3385 10.5182 15.2292 10.3359 15.0469C10.2812 14.9922 10.2357 14.9466 10.1992 14.9102C10.1628 14.8737 10.1263 14.8464 10.0898 14.8281C10.0534 14.7917 10.0169 14.7643 9.98047 14.7461C9.94401 14.7096 9.91667 14.6914 9.89844 14.6914C9.88021 14.6732 9.83464 14.6549 9.76172 14.6367C9.70703 14.6185 9.66146 14.6094 9.625 14.6094C9.60677 14.5911 9.55208 14.5729 9.46094 14.5547C9.38802 14.5365 9.32422 14.5182 9.26953 14.5C8.86849 14.3906 8.61328 14.1263 8.50391 13.707C8.39453 13.3242 8.3125 13.0964 8.25781 13.0234C8.22135 12.9323 8.06641 12.7409 7.79297 12.4492C7.48307 12.1393 7.38281 11.7839 7.49219 11.3828C7.60156 10.9818 7.65625 10.7357 7.65625 10.6445C7.65625 10.5534 7.60156 10.3164 7.49219 9.93359C7.38281 9.51432 7.48307 9.14974 7.79297 8.83984C8.06641 8.56641 8.22135 8.39323 8.25781 8.32031C8.3125 8.22917 8.39453 7.98307 8.50391 7.58203C8.61328 7.18099 8.86849 6.91667 9.26953 6.78906C9.72526 6.67969 10.026 6.55208 10.1719 6.40625C10.2083 6.38802 10.3177 6.27865 10.5 6.07812C10.8099 5.76823 11.1654 5.66797 11.5664 5.77734C11.9492 5.88672 12.1862 5.94141 12.2773 5.94141C12.3685 5.94141 12.6055 5.88672 12.9883 5.77734C13.3893 5.66797 13.7448 5.76823 14.0547 6.07812C14.3281 6.36979 14.5013 6.54297 14.5742 6.59766C14.6654 6.63411 14.9023 6.69792 15.2852 6.78906C15.6862 6.91667 15.9414 7.18099 16.0508 7.58203C16.1237 7.85547 16.1602 8.01042 16.1602 8.04688C16.1784 8.08333 16.224 8.16536 16.2969 8.29297C16.3698 8.42057 16.4154 8.5026 16.4336 8.53906C16.4701 8.55729 16.5794 8.65755 16.7617 8.83984C17.0716 9.14974 17.1719 9.51432 17.0625 9.93359C16.9531 10.3164 16.8984 10.5534 16.8984 10.6445C16.8984 10.7357 16.9531 10.9818 17.0625 11.3828C17.1719 11.7839 17.0716 12.1393 16.7617 12.4492C16.4883 12.7409 16.3242 12.9323 16.2695 13.0234C16.2331 13.0964 16.1602 13.3242 16.0508 13.707C15.9414 14.1263 15.6862 14.3906 15.2852 14.5C15.2305 14.5182 15.1576 14.5365 15.0664 14.5547C14.9753 14.5729 14.9115 14.5911 14.875 14.6094C14.8568 14.6094 14.8112 14.6276 14.7383 14.6641C14.6836 14.6823 14.638 14.7005 14.6016 14.7188C14.5833 14.7188 14.5469 14.737 14.4922 14.7734C14.4557 14.8099 14.4102 14.8555 14.3555 14.9102C14.319 14.9466 14.2734 14.9922 14.2188 15.0469ZM10.4453 8.70312C9.95312 9.21354 9.70703 9.83333 9.70703 10.5625C9.70703 11.2917 9.95312 11.9115 10.4453 12.4219C10.9557 12.9323 11.5664 13.1875 12.2773 13.1875C12.9883 13.1875 13.5898 12.9323 14.082 12.4219C14.5924 11.9115 14.8477 11.2917 14.8477 10.5625C14.8477 10.0885 14.7292 9.65104 14.4922 9.25C14.2734 8.84896 13.9635 8.52995 13.5625 8.29297C13.1797 8.05599 12.7513 7.9375 12.2773 7.9375C11.5664 7.9375 10.9557 8.19271 10.4453 8.70312Z" fill="white"/>
</svg>
